<?xml version="1.0" encoding="UTF-8"?>
<svg xmlns="http://www.w3.org/2000/svg" viewBox="0 0 760 400" style="display:block;width:100%;height:auto" font-family="'Birdie', system-ui, sans-serif" role="img" aria-label="Death rate versus trust. Deaths climb with trust to nearly half the population just below 77.6 percent trust, then drop to zero once a population crosses the blue-wins majority. Every surveyed country sits on the rising side; none reach the safe zone.">
<rect x="589.2" y="22" width="150.8" height="332" fill="#6e6291" opacity="0.12"/>
<text x="664.6" y="188" fill="#6e6291" font-size="15" text-anchor="middle">Blue &gt;50%</text>
<line x1="66.0" y1="22" x2="66.0" y2="354" stroke="#e8dfc8" stroke-width="1"/>
<text x="66.0" y="370" fill="#5c5650" font-size="11" text-anchor="middle">0%</text>
<line x1="200.8" y1="22" x2="200.8" y2="354" stroke="#e8dfc8" stroke-width="1"/>
<text x="200.8" y="370" fill="#5c5650" font-size="11" text-anchor="middle">20%</text>
<line x1="335.6" y1="22" x2="335.6" y2="354" stroke="#e8dfc8" stroke-width="1"/>
<text x="335.6" y="370" fill="#5c5650" font-size="11" text-anchor="middle">40%</text>
<line x1="470.4" y1="22" x2="470.4" y2="354" stroke="#e8dfc8" stroke-width="1"/>
<text x="470.4" y="370" fill="#5c5650" font-size="11" text-anchor="middle">60%</text>
<line x1="605.2" y1="22" x2="605.2" y2="354" stroke="#e8dfc8" stroke-width="1"/>
<text x="605.2" y="370" fill="#5c5650" font-size="11" text-anchor="middle">80%</text>
<line x1="740.0" y1="22" x2="740.0" y2="354" stroke="#e8dfc8" stroke-width="1"/>
<text x="740.0" y="370" fill="#5c5650" font-size="11" text-anchor="middle">100%</text>
<line x1="66" y1="354.0" x2="740" y2="354.0" stroke="#e8dfc8" stroke-width="1"/>
<text x="58" y="357.0" fill="#5c5650" font-size="11" text-anchor="end">0%</text>
<line x1="66" y1="287.6" x2="740" y2="287.6" stroke="#e8dfc8" stroke-width="1"/>
<text x="58" y="290.6" fill="#5c5650" font-size="11" text-anchor="end">10%</text>
<line x1="66" y1="221.2" x2="740" y2="221.2" stroke="#e8dfc8" stroke-width="1"/>
<text x="58" y="224.2" fill="#5c5650" font-size="11" text-anchor="end">20%</text>
<line x1="66" y1="154.8" x2="740" y2="154.8" stroke="#e8dfc8" stroke-width="1"/>
<text x="58" y="157.8" fill="#5c5650" font-size="11" text-anchor="end">30%</text>
<line x1="66" y1="88.4" x2="740" y2="88.4" stroke="#e8dfc8" stroke-width="1"/>
<text x="58" y="91.4" fill="#5c5650" font-size="11" text-anchor="end">40%</text>
<line x1="66" y1="22.0" x2="740" y2="22.0" stroke="#e8dfc8" stroke-width="1"/>
<text x="58" y="25.0" fill="#5c5650" font-size="11" text-anchor="end">50%</text>
<line x1="66" y1="354" x2="740" y2="354" stroke="#1a1a1a" stroke-width="1.5"/>
<line x1="66" y1="22" x2="66" y2="354" stroke="#1a1a1a" stroke-width="1.5"/>
<line x1="589.2" y1="22.0" x2="589.2" y2="354.0" stroke="#a84a3c" stroke-width="2" stroke-dasharray="4 3"/>
<path d="M 66.0 354.0 L 69.3 354.0 L 72.6 354.0 L 75.9 354.0 L 79.2 354.0 L 82.5 354.0 L 85.7 354.0 L 89.0 354.0 L 92.3 354.0 L 95.6 354.0 L 98.9 354.0 L 102.2 354.0 L 105.5 354.0 L 108.8 354.0 L 112.1 354.0 L 115.4 353.9 L 118.7 353.9 L 121.9 353.9 L 125.2 353.9 L 128.5 353.9 L 131.8 353.9 L 135.1 353.9 L 138.4 353.9 L 141.7 353.8 L 145.0 353.8 L 148.3 353.8 L 151.6 353.8 L 154.9 353.8 L 158.1 353.7 L 161.4 353.7 L 164.7 353.7 L 168.0 353.6 L 171.3 353.6 L 174.6 353.5 L 177.9 353.5 L 181.2 353.4 L 184.5 353.4 L 187.8 353.3 L 191.1 353.2 L 194.3 353.2 L 197.6 353.1 L 200.9 353.0 L 204.2 352.9 L 207.5 352.8 L 210.8 352.7 L 214.1 352.6 L 217.4 352.5 L 220.7 352.3 L 224.0 352.2 L 227.2 352.0 L 230.5 351.9 L 233.8 351.7 L 237.1 351.5 L 240.4 351.3 L 243.7 351.1 L 247.0 350.9 L 250.3 350.6 L 253.6 350.4 L 256.9 350.1 L 260.2 349.8 L 263.4 349.5 L 266.7 349.2 L 270.0 348.8 L 273.3 348.5 L 276.6 348.1 L 279.9 347.7 L 283.2 347.2 L 286.5 346.8 L 289.8 346.3 L 293.1 345.8 L 296.4 345.2 L 299.6 344.7 L 302.9 344.1 L 306.2 343.4 L 309.5 342.8 L 312.8 342.1 L 316.1 341.4 L 319.4 340.6 L 322.7 339.8 L 326.0 338.9 L 329.3 338.0 L 332.6 337.1 L 335.8 336.1 L 339.1 335.1 L 342.4 334.0 L 345.7 332.9 L 349.0 331.8 L 352.3 330.6 L 355.6 329.3 L 358.9 328.0 L 362.2 326.6 L 365.5 325.1 L 368.8 323.7 L 372.0 322.1 L 375.3 320.5 L 378.6 318.8 L 381.9 317.0 L 385.2 315.2 L 388.5 313.3 L 391.8 311.4 L 395.1 309.3 L 398.4 307.2 L 401.7 305.1 L 405.0 302.8 L 408.2 300.5 L 411.5 298.0 L 414.8 295.5 L 418.1 293.0 L 421.4 290.3 L 424.7 287.5 L 428.0 284.7 L 431.3 281.8 L 434.6 278.7 L 437.9 275.6 L 441.2 272.4 L 444.4 269.1 L 447.7 265.7 L 451.0 262.2 L 454.3 258.6 L 457.6 254.9 L 460.9 251.0 L 464.2 247.1 L 467.5 243.1 L 470.8 239.0 L 474.1 234.8 L 477.4 230.5 L 480.6 226.0 L 483.9 221.5 L 487.2 216.8 L 490.5 212.1 L 493.8 207.2 L 497.1 202.3 L 500.4 197.2 L 503.7 192.0 L 507.0 186.7 L 510.3 181.3 L 513.6 175.8 L 516.8 170.2 L 520.1 164.5 L 523.4 158.6 L 526.7 152.7 L 530.0 146.7 L 533.3 140.5 L 536.6 134.3 L 539.9 127.9 L 543.2 121.5 L 546.5 115.0 L 549.7 108.3 L 553.0 101.6 L 556.3 94.8 L 559.6 87.9 L 562.9 80.9 L 566.2 73.8 L 569.5 66.6 L 572.8 59.4 L 576.1 52.0 L 579.4 44.6 L 582.7 37.1 L 585.9 29.6 L 589.2 22.0" fill="none" stroke="#a84a3c" stroke-width="2.5"/>
<text x="583.2" y="34" fill="#5c5650" font-size="11" text-anchor="end">77.6%</text>
<line x1="564.8" y1="76.9" x2="564.8" y2="354" stroke="#bdb6a8" stroke-width="1" stroke-dasharray="1 3"/>
<text x="564.8" y="69.9" font-size="17" text-anchor="middle">🇩🇰</text>
<line x1="551.3" y1="105.2" x2="551.3" y2="354" stroke="#bdb6a8" stroke-width="1" stroke-dasharray="1 3"/>
<text x="551.3" y="98.2" font-size="17" text-anchor="middle">🇳🇴</text>
<line x1="510.8" y1="180.3" x2="510.8" y2="354" stroke="#bdb6a8" stroke-width="1" stroke-dasharray="1 3"/>
<text x="510.8" y="173.3" font-size="17" text-anchor="middle">🇳🇱</text>
<line x1="497.4" y1="201.9" x2="497.4" y2="354" stroke="#bdb6a8" stroke-width="1" stroke-dasharray="1 3"/>
<text x="497.4" y="194.9" font-size="17" text-anchor="middle">🇨🇳</text>
<line x1="490.6" y1="211.9" x2="490.6" y2="354" stroke="#bdb6a8" stroke-width="1" stroke-dasharray="1 3"/>
<text x="490.6" y="204.9" font-size="17" text-anchor="middle">🇸🇪</text>
<line x1="463.7" y1="247.8" x2="463.7" y2="354" stroke="#bdb6a8" stroke-width="1" stroke-dasharray="1 3"/>
<text x="463.7" y="240.8" font-size="17" text-anchor="middle">🇨🇭</text>
<line x1="456.9" y1="255.6" x2="456.9" y2="354" stroke="#bdb6a8" stroke-width="1" stroke-dasharray="1 3"/>
<text x="456.9" y="248.6" font-size="17" text-anchor="middle">🇫🇮</text>
<line x1="450.2" y1="263.1" x2="450.2" y2="354" stroke="#bdb6a8" stroke-width="1" stroke-dasharray="1 3"/>
<text x="450.2" y="256.1" font-size="17" text-anchor="middle">🇳🇿</text>
<line x1="389.5" y1="312.7" x2="389.5" y2="354" stroke="#bdb6a8" stroke-width="1" stroke-dasharray="1 3"/>
<text x="389.5" y="305.7" font-size="17" text-anchor="middle">🇦🇺</text>
<line x1="376.0" y1="320.1" x2="376.0" y2="354" stroke="#bdb6a8" stroke-width="1" stroke-dasharray="1 3"/>
<text x="376.0" y="313.1" font-size="17" text-anchor="middle">🇬🇧</text>
<line x1="349.1" y1="331.7" x2="349.1" y2="354" stroke="#bdb6a8" stroke-width="1" stroke-dasharray="1 3"/>
<text x="349.1" y="324.7" font-size="17" text-anchor="middle">🇩🇪</text>
<line x1="349.1" y1="331.7" x2="349.1" y2="354" stroke="#bdb6a8" stroke-width="1" stroke-dasharray="1 3"/>
<text x="349.1" y="311.7" font-size="17" text-anchor="middle">🇨🇦</text>
<line x1="315.4" y1="341.5" x2="315.4" y2="354" stroke="#bdb6a8" stroke-width="1" stroke-dasharray="1 3"/>
<text x="315.4" y="334.5" font-size="17" text-anchor="middle">🇺🇸</text>
<line x1="308.6" y1="343.0" x2="308.6" y2="354" stroke="#bdb6a8" stroke-width="1" stroke-dasharray="1 3"/>
<text x="308.6" y="336.0" font-size="17" text-anchor="middle">🇯🇵</text>
<line x1="214.3" y1="352.6" x2="214.3" y2="354" stroke="#bdb6a8" stroke-width="1" stroke-dasharray="1 3"/>
<text x="214.3" y="345.6" font-size="17" text-anchor="middle">🇮🇳</text>
<line x1="248.0" y1="350.8" x2="248.0" y2="354" stroke="#bdb6a8" stroke-width="1" stroke-dasharray="1 3"/>
<text x="248.0" y="343.8" font-size="17" text-anchor="middle">🇪🇸</text>
<line x1="241.2" y1="351.3" x2="241.2" y2="354" stroke="#bdb6a8" stroke-width="1" stroke-dasharray="1 3"/>
<text x="241.2" y="344.3" font-size="17" text-anchor="middle">🇫🇷</text>
<line x1="227.8" y1="352.0" x2="227.8" y2="354" stroke="#bdb6a8" stroke-width="1" stroke-dasharray="1 3"/>
<text x="227.8" y="345.0" font-size="17" text-anchor="middle">🇷🇺</text>
<line x1="200.8" y1="353.0" x2="200.8" y2="354" stroke="#bdb6a8" stroke-width="1" stroke-dasharray="1 3"/>
<text x="200.8" y="346.0" font-size="17" text-anchor="middle">🇦🇷</text>
<line x1="153.6" y1="353.8" x2="153.6" y2="354" stroke="#bdb6a8" stroke-width="1" stroke-dasharray="1 3"/>
<text x="153.6" y="346.8" font-size="17" text-anchor="middle">🇲🇽</text>
<line x1="153.6" y1="353.8" x2="153.6" y2="354" stroke="#bdb6a8" stroke-width="1" stroke-dasharray="1 3"/>
<text x="153.6" y="333.8" font-size="17" text-anchor="middle">🇹🇷</text>
<line x1="113.2" y1="354.0" x2="113.2" y2="354" stroke="#bdb6a8" stroke-width="1" stroke-dasharray="1 3"/>
<text x="113.2" y="347.0" font-size="17" text-anchor="middle">🇧🇷</text>
<line x1="99.7" y1="354.0" x2="99.7" y2="354" stroke="#bdb6a8" stroke-width="1" stroke-dasharray="1 3"/>
<text x="99.7" y="347.0" font-size="17" text-anchor="middle">🇨🇴</text>
<line x1="268.9" y1="319.9" x2="268.9" y2="354" stroke="#bdb6a8" stroke-width="1" stroke-dasharray="1 3"/>
<text x="268.9" y="312.9" font-size="17" text-anchor="middle">🌍</text>
<text x="403" y="394" fill="#1a1a1a" font-size="12" text-anchor="middle">← trust →</text>
<text x="14" y="188" fill="#1a1a1a" font-size="12" text-anchor="middle" transform="rotate(-90 14 188)">death toll</text>
</svg>